<svg width="27" height="24" viewBox="0 0 27 24" fill="none" xmlns="http://www.w3.org/2000/svg">
<path d="M1.2654 9.36288H25.7346V7.73653H1.2654V9.36288ZM25.2 8.87985V9.59382H27V8.87985H25.2ZM22.2948 22.3737H4.7052V24H22.2948V22.3737ZM1.8 9.59382V8.87985H0V9.59382H1.8ZM5.2128 22.6566C2.96838 18.6007 1.79994 14.1284 1.8 9.59382H0C0 14.3818 1.233 19.1031 3.6036 23.3852L5.2128 22.6566ZM4.7052 22.3737C4.9212 22.3737 5.1174 22.4842 5.2128 22.6566L3.6036 23.3852C3.70608 23.5699 3.86337 23.7252 4.0579 23.8338C4.25244 23.9423 4.47655 23.9999 4.7052 24V22.3737ZM21.7872 22.6566C21.8344 22.5715 21.9068 22.5 21.9965 22.45C22.0861 22.4 22.1894 22.3736 22.2948 22.3737V24C22.7628 24 23.1876 23.7626 23.3964 23.3852L21.7872 22.6566ZM25.2 9.59382C25.2 14.1281 24.03 18.6005 21.7872 22.6566L23.3964 23.3852C25.7663 19.1032 27 14.3814 27 9.59382H25.2ZM25.7346 9.36288C25.5928 9.36288 25.4568 9.31199 25.3566 9.2214C25.2563 9.13082 25.2 9.00796 25.2 8.87985H27C27 8.57663 26.8667 8.28582 26.6294 8.0714C26.3921 7.85699 26.0702 7.73653 25.7346 7.73653V9.36288ZM1.2654 7.73653C0.929795 7.73653 0.607936 7.85699 0.370627 8.0714C0.133319 8.28582 0 8.57663 0 8.87985H1.8C1.8 9.00796 1.74368 9.13082 1.64342 9.2214C1.54316 9.31199 1.40718 9.36288 1.2654 9.36288V7.73653ZM7.0722 8.96768L12.4722 0.835942L10.926 0L5.526 8.13173L7.0722 8.96768ZM14.5278 0.835942L19.9278 8.96768L21.4722 8.13173L16.0722 0L14.5278 0.835942Z" fill="black"/>
</svg>
