<svg width="107" height="29" viewBox="0 0 107 29" fill="none" xmlns="http://www.w3.org/2000/svg">
<path d="M31.256 23V6.2H38.168C39.656 6.2 40.928 6.44 41.984 6.92C43.056 7.4 43.88 8.088 44.456 8.984C45.032 9.88 45.32 10.944 45.32 12.176C45.32 13.408 45.032 14.472 44.456 15.368C43.88 16.264 43.056 16.952 41.984 17.432C40.928 17.912 39.656 18.152 38.168 18.152H32.984L34.376 16.688V23H31.256ZM34.376 17.024L32.984 15.512H38.024C39.4 15.512 40.432 15.224 41.12 14.648C41.824 14.056 42.176 13.232 42.176 12.176C42.176 11.104 41.824 10.28 41.12 9.704C40.432 9.128 39.4 8.84 38.024 8.84H32.984L34.376 7.304V17.024ZM48.3821 23V5.192H51.3821V23H48.3821ZM63.2156 23V20.408L63.0476 19.856V15.32C63.0476 14.44 62.7836 13.76 62.2556 13.28C61.7276 12.784 60.9276 12.536 59.8556 12.536C59.1356 12.536 58.4236 12.648 57.7196 12.872C57.0316 13.096 56.4476 13.408 55.9676 13.808L54.7916 11.624C55.4796 11.096 56.2956 10.704 57.2396 10.448C58.1996 10.176 59.1916 10.04 60.2156 10.04C62.0716 10.04 63.5036 10.488 64.5116 11.384C65.5356 12.264 66.0476 13.632 66.0476 15.488V23H63.2156ZM59.1836 23.168C58.2236 23.168 57.3836 23.008 56.6636 22.688C55.9436 22.352 55.3836 21.896 54.9836 21.32C54.5996 20.728 54.4076 20.064 54.4076 19.328C54.4076 18.608 54.5756 17.96 54.9116 17.384C55.2636 16.808 55.8316 16.352 56.6156 16.016C57.3996 15.68 58.4396 15.512 59.7356 15.512H63.4556V17.504H59.9516C58.9276 17.504 58.2396 17.672 57.8876 18.008C57.5356 18.328 57.3596 18.728 57.3596 19.208C57.3596 19.752 57.5756 20.184 58.0076 20.504C58.4396 20.824 59.0396 20.984 59.8076 20.984C60.5436 20.984 61.1996 20.816 61.7756 20.48C62.3676 20.144 62.7916 19.648 63.0476 18.992L63.5516 20.792C63.2636 21.544 62.7436 22.128 61.9916 22.544C61.2556 22.96 60.3196 23.168 59.1836 23.168ZM77.1697 10.04C78.1937 10.04 79.1057 10.24 79.9057 10.64C80.7217 11.04 81.3617 11.656 81.8257 12.488C82.2897 13.304 82.5217 14.36 82.5217 15.656V23H79.5217V16.04C79.5217 14.904 79.2497 14.056 78.7057 13.496C78.1777 12.936 77.4337 12.656 76.4737 12.656C75.7697 12.656 75.1457 12.8 74.6017 13.088C74.0577 13.376 73.6337 13.808 73.3297 14.384C73.0417 14.944 72.8977 15.656 72.8977 16.52V23H69.8977V10.184H72.7537V13.64L72.2497 12.584C72.6977 11.768 73.3457 11.144 74.1937 10.712C75.0577 10.264 76.0497 10.04 77.1697 10.04ZM91.1514 23.168C89.7434 23.168 88.6554 22.808 87.8874 22.088C87.1194 21.352 86.7354 20.272 86.7354 18.848V7.352H89.7354V18.776C89.7354 19.384 89.8874 19.856 90.1914 20.192C90.5114 20.528 90.9514 20.696 91.5114 20.696C92.1834 20.696 92.7434 20.52 93.1914 20.168L94.0314 22.304C93.6794 22.592 93.2474 22.808 92.7354 22.952C92.2234 23.096 91.6954 23.168 91.1514 23.168ZM84.6234 12.68V10.28H93.1674V12.68H84.6234ZM100.459 23.168C99.3873 23.168 98.3553 23.032 97.3633 22.76C96.3873 22.472 95.6113 22.128 95.0353 21.728L96.1873 19.448C96.7633 19.816 97.4513 20.12 98.2513 20.36C99.0513 20.6 99.8513 20.72 100.651 20.72C101.595 20.72 102.275 20.592 102.691 20.336C103.123 20.08 103.339 19.736 103.339 19.304C103.339 18.952 103.195 18.688 102.907 18.512C102.619 18.32 102.243 18.176 101.779 18.08C101.315 17.984 100.795 17.896 100.219 17.816C99.6593 17.736 99.0913 17.632 98.5153 17.504C97.9553 17.36 97.4433 17.16 96.9793 16.904C96.5153 16.632 96.1393 16.272 95.8513 15.824C95.5633 15.376 95.4193 14.784 95.4193 14.048C95.4193 13.232 95.6513 12.528 96.1152 11.936C96.5793 11.328 97.2273 10.864 98.0592 10.544C98.9073 10.208 99.9073 10.04 101.059 10.04C101.923 10.04 102.795 10.136 103.675 10.328C104.555 10.52 105.283 10.792 105.859 11.144L104.707 13.424C104.099 13.056 103.483 12.808 102.859 12.68C102.251 12.536 101.643 12.464 101.035 12.464C100.123 12.464 99.4433 12.6 98.9953 12.872C98.5633 13.144 98.3473 13.488 98.3473 13.904C98.3473 14.288 98.4913 14.576 98.7793 14.768C99.0673 14.96 99.4433 15.112 99.9073 15.224C100.371 15.336 100.883 15.432 101.443 15.512C102.019 15.576 102.587 15.68 103.147 15.824C103.707 15.968 104.219 16.168 104.683 16.424C105.163 16.664 105.547 17.008 105.835 17.456C106.123 17.904 106.267 18.488 106.267 19.208C106.267 20.008 106.027 20.704 105.547 21.296C105.083 21.888 104.419 22.352 103.555 22.688C102.691 23.008 101.659 23.168 100.459 23.168Z" fill="black"/>
<path d="M18.6894 10.3104C22.2234 15.1881 19.5199 20.775 18.2123 22.9545C18.0206 23.2593 17.7631 23.5194 17.4578 23.7166C17.1526 23.9138 16.807 24.0433 16.4453 24.0961C13.8832 24.5285 7.5043 25.0128 4.07633 20.1351C0.701358 15.5341 0.842718 7.43909 1.14311 3.58186C1.15495 3.29449 1.23635 3.01397 1.3806 2.76341C1.52485 2.51285 1.72782 2.29941 1.97282 2.14065C2.21782 1.98189 2.49783 1.88236 2.7898 1.85025C3.08178 1.81814 3.37737 1.85437 3.65225 1.95595C7.45129 3.02836 15.3674 5.70939 18.6894 10.3104Z" stroke="black" stroke-width="2" stroke-linecap="round" stroke-linejoin="round"/>
<path d="M6.77985 8.70178C10.8272 13.3707 14.3794 18.4301 17.3818 23.802" stroke="black" stroke-width="2" stroke-linecap="round" stroke-linejoin="round"/>
</svg>
