<svg width="30" height="25" viewBox="0 0 30 25" fill="none" xmlns="http://www.w3.org/2000/svg">
<path d="M26.2255 0.604004H3.77453C2.77347 0.604004 1.8134 1.00168 1.10554 1.70954C0.397673 2.4174 0 3.37747 0 4.37854V20.7902C0 21.7913 0.397673 22.7514 1.10554 23.4592C1.8134 24.1671 2.77347 24.5647 3.77453 24.5647H26.2255C27.2265 24.5647 28.1866 24.1671 28.8945 23.4592C29.6023 22.7514 30 21.7913 30 20.7902V4.37854C30 3.37747 29.6023 2.4174 28.8945 1.70954C28.1866 1.00168 27.2265 0.604004 26.2255 0.604004ZM3.77453 2.11382H26.2255C26.7969 2.11217 27.3476 2.32823 27.7655 2.71806C28.1834 3.10789 28.4371 3.64224 28.4751 4.21246C24.7458 6.20541 21.0015 8.18327 17.2572 10.1762C16.7506 10.4937 16.2147 10.7616 15.6568 10.9764C15.2188 11.0629 14.7674 11.0551 14.3327 10.9535C13.8979 10.852 13.4898 10.6591 13.1354 10.3876C10.9914 9.25524 8.84751 8.10778 6.71867 6.97542C4.99748 6.06953 3.2461 5.14854 1.52491 4.22756C1.55993 3.65491 1.81226 3.11724 2.23038 2.72438C2.64849 2.33153 3.20082 2.11313 3.77453 2.11382ZM28.4902 20.7902C28.4902 21.3909 28.2516 21.9669 27.8269 22.3916C27.4021 22.8163 26.8261 23.0549 26.2255 23.0549H3.77453C3.17389 23.0549 2.59785 22.8163 2.17314 22.3916C1.74842 21.9669 1.50981 21.3909 1.50981 20.7902V5.9412C5.07297 7.81336 8.62104 9.71573 12.1842 11.603C12.8208 11.9933 13.5061 12.2979 14.2224 12.5089C15.2708 12.6793 16.3453 12.4591 17.2421 11.8899C19.4313 10.7424 21.6054 9.57985 23.7947 8.43239C25.3649 7.58689 26.92 6.77159 28.4902 5.9412V20.7902Z" fill="black" fill-opacity="0.8"/>
</svg>
