<svg width="32" height="27" viewBox="0 0 32 27" fill="none" xmlns="http://www.w3.org/2000/svg">
<path d="M29.6487 1C30.5731 1 31.2705 1.81094 30.8975 3.31929L26.3725 24.6471C26.0562 26.1635 25.1398 26.5284 23.8748 25.8229L13.0811 17.8514C13.0393 17.8213 13.0052 17.7818 12.9816 17.7359C12.9581 17.6901 12.9458 17.6393 12.9458 17.5878C12.9458 17.5363 12.9581 17.4855 12.9816 17.4397C13.0052 17.3939 13.0393 17.3543 13.0811 17.3243L25.5453 6.06838C26.113 5.5656 25.4237 5.32232 24.6776 5.77645L9.03452 15.6456C8.98708 15.6765 8.93322 15.6963 8.87701 15.7033C8.82081 15.7103 8.76375 15.7045 8.71015 15.6862L2.06854 13.5858C0.592622 13.156 0.592622 12.1423 2.40102 11.4206L28.9756 1.1703C29.1863 1.06919 29.4152 1.01129 29.6487 1Z" stroke="black" stroke-linecap="round" stroke-linejoin="round"/>
</svg>
